<svg width="96" height="21" viewBox="0 0 96 21" fill="none" xmlns="http://www.w3.org/2000/svg">
<g clip-path="url(#clip0_10_3)">
<path d="M-0.362 21V20.71L0.16 20.507C0.546667 20.3523 0.807667 20.159 0.943 19.927C1.09767 19.695 1.175 19.3857 1.175 18.999V3.861C1.175 3.455 1.09767 3.136 0.943 2.904C0.807667 2.672 0.546667 2.48833 0.16 2.353L-0.362 2.15V1.86H7.961C10.3197 1.86 12.021 2.295 13.065 3.165C14.109 4.01567 14.631 5.09833 14.631 6.413C14.631 7.399 14.2443 8.298 13.471 9.11C12.717 9.90267 11.412 10.4633 9.556 10.792C11.6827 11.024 13.239 11.5847 14.225 12.474C15.211 13.344 15.704 14.4073 15.704 15.664C15.704 16.2827 15.5687 16.911 15.298 17.549C15.0273 18.1677 14.5633 18.738 13.906 19.26C13.268 19.782 12.3883 20.2073 11.267 20.536C10.1457 20.8453 8.72467 21 7.004 21H-0.362ZM5.467 10.763H6.714C8.00933 10.763 8.93733 10.4633 9.498 9.864C10.078 9.26467 10.368 8.22067 10.368 6.732C10.368 5.18533 10.107 4.08333 9.585 3.426C9.063 2.76867 8.21233 2.44 7.033 2.44H5.467V10.763ZM5.467 20.42H6.917C8.367 20.42 9.44 20.0333 10.136 19.26C10.8513 18.4867 11.209 17.2783 11.209 15.635C11.209 14.0883 10.8707 12.9863 10.194 12.329C9.51733 11.6717 8.40567 11.343 6.859 11.343H5.467V20.42ZM16.7158 21V20.71L17.0638 20.594C17.7598 20.362 18.1078 19.8787 18.1078 19.144V3.658C18.1078 3.252 18.0402 2.95233 17.9048 2.759C17.7695 2.56567 17.5085 2.42067 17.1218 2.324L16.6868 2.208V1.918L21.7908 0.670999L22.2548 0.931999L22.1388 5.021V8.646C22.8155 8.08533 23.5405 7.61167 24.3138 7.225C25.1065 6.819 25.9765 6.616 26.9238 6.616C28.1805 6.616 29.1762 6.97367 29.9108 7.689C30.6648 8.40433 31.0418 9.50633 31.0418 10.995V19.173C31.0418 19.5597 31.1192 19.869 31.2738 20.101C31.4285 20.333 31.6992 20.507 32.0858 20.623L32.3178 20.71V21H25.5318V20.71L25.8798 20.623C26.5758 20.391 26.9238 19.898 26.9238 19.144V10.038C26.9238 9.26467 26.7885 8.733 26.5178 8.443C26.2665 8.153 25.8122 8.008 25.1548 8.008C24.7295 8.008 24.2655 8.095 23.7628 8.269C23.2602 8.42367 22.7478 8.704 22.2258 9.11V19.202C22.2258 19.956 22.5738 20.4393 23.2698 20.652L23.5018 20.71V21H16.7158ZM37.5152 21.435C36.3938 21.435 35.4465 21.116 34.6732 20.478C33.9192 19.84 33.5422 18.9217 33.5422 17.723C33.5422 16.8143 34.0062 15.983 34.9342 15.229C35.8622 14.4557 37.3218 13.8757 39.3132 13.489C39.6225 13.431 39.9705 13.373 40.3572 13.315C40.7438 13.2377 41.1498 13.1603 41.5752 13.083V10.792C41.5752 9.47733 41.4108 8.559 41.0822 8.037C40.7728 7.49567 40.2798 7.225 39.6032 7.225C39.1392 7.225 38.7718 7.37967 38.5012 7.689C38.2305 7.979 38.0565 8.49133 37.9792 9.226L37.9212 9.545C37.8825 10.3763 37.6795 10.9853 37.3122 11.372C36.9448 11.7587 36.4905 11.952 35.9492 11.952C35.4465 11.952 35.0308 11.7973 34.7022 11.488C34.3735 11.1787 34.2092 10.763 34.2092 10.241C34.2092 9.44833 34.4798 8.78133 35.0212 8.24C35.5818 7.69867 36.3165 7.29267 37.2252 7.022C38.1338 6.75133 39.1198 6.616 40.1832 6.616C41.9038 6.616 43.2282 7.04133 44.1562 7.892C45.1035 8.72333 45.5772 10.0863 45.5772 11.981V18.39C45.5772 19.26 45.9832 19.695 46.7952 19.695H47.4332L47.6942 19.927C47.3268 20.391 46.9208 20.7487 46.4762 21C46.0508 21.2513 45.4418 21.377 44.6492 21.377C43.7985 21.377 43.1218 21.1837 42.6192 20.797C42.1358 20.391 41.8168 19.8593 41.6622 19.202C41.0822 19.8207 40.4828 20.3523 39.8642 20.797C39.2648 21.2223 38.4818 21.435 37.5152 21.435ZM39.2842 19.666C39.6708 19.666 40.0285 19.579 40.3572 19.405C40.7052 19.2117 41.1112 18.9217 41.5752 18.535V13.663C41.3818 13.7017 41.1885 13.7403 40.9952 13.779C40.8018 13.8177 40.5795 13.8563 40.3282 13.895C39.4388 14.127 38.7235 14.5233 38.1822 15.084C37.6602 15.6253 37.3992 16.36 37.3992 17.288C37.3992 18.0807 37.5828 18.68 37.9502 19.086C38.3175 19.4727 38.7622 19.666 39.2842 19.666ZM54.2205 21.087L49.0875 8.762C48.8169 8.10467 48.3529 7.66967 47.6955 7.457L47.2895 7.341V7.051H54.8005V7.341L54.2785 7.457C53.5245 7.65033 53.2925 8.153 53.5825 8.965L56.6275 17.056L59.4695 9.023C59.6242 8.63633 59.6629 8.31733 59.5855 8.066C59.5082 7.81467 59.2762 7.631 58.8895 7.515L58.1645 7.341V7.051H62.3695V7.341L61.5285 7.544C61.1612 7.64067 60.8712 7.78567 60.6585 7.979C60.4652 8.17233 60.3009 8.46233 60.1655 8.849L55.9025 21.087H54.2205ZM66.5825 5.108C65.9251 5.108 65.3645 4.905 64.9005 4.499C64.4558 4.07367 64.2335 3.542 64.2335 2.904C64.2335 2.24667 64.4558 1.715 64.9005 1.309C65.3645 0.902999 65.9251 0.699999 66.5825 0.699999C67.2398 0.699999 67.7908 0.902999 68.2355 1.309C68.6801 1.715 68.9025 2.24667 68.9025 2.904C68.9025 3.542 68.6801 4.07367 68.2355 4.499C67.7908 4.905 67.2398 5.108 66.5825 5.108ZM63.1605 21V20.71L63.5665 20.594C63.9531 20.478 64.2141 20.304 64.3495 20.072C64.5041 19.84 64.5815 19.5307 64.5815 19.144V10.067C64.5815 9.661 64.5041 9.36133 64.3495 9.168C64.2141 8.95533 63.9531 8.81033 63.5665 8.733L63.1605 8.646V8.356L68.4675 6.645L68.7575 6.935L68.6705 11.053V19.173C68.6705 19.5597 68.7381 19.869 68.8735 20.101C69.0281 20.333 69.2891 20.507 69.6565 20.623L69.9465 20.71V21H63.1605ZM71.2884 21V20.71L71.7234 20.565C72.3807 20.3523 72.7094 19.8787 72.7094 19.144V3.629C72.7094 3.24233 72.6321 2.95233 72.4774 2.759C72.3227 2.56567 72.0521 2.411 71.6654 2.295L71.2884 2.208V1.918L76.5954 0.670999L76.9434 0.931999L76.8564 4.992V19.144C76.8564 19.9173 77.1754 20.4007 77.8134 20.594L78.2194 20.71V21H71.2884ZM82.0474 21L76.8854 13.75L82.2504 8.791C82.5017 8.559 82.6467 8.31733 82.6854 8.066C82.7434 7.79533 82.5791 7.602 82.1924 7.486L81.6994 7.341V7.051H86.0204V7.341L85.1504 7.573C84.7251 7.70833 84.3771 7.87267 84.1064 8.066C83.8551 8.24 83.5457 8.49133 83.1784 8.82L79.9304 11.865L85.1214 19.086C85.4307 19.5113 85.7207 19.84 85.9914 20.072C86.2621 20.304 86.6101 20.4973 87.0354 20.652L87.1514 20.71V21H82.0474ZM91.7094 21.435C91.0134 21.435 90.4237 21.1933 89.9404 20.71C89.457 20.2267 89.2154 19.6467 89.2154 18.97C89.2154 18.2933 89.457 17.7037 89.9404 17.201C90.4237 16.6983 91.0134 16.447 91.7094 16.447C92.4054 16.447 92.995 16.6983 93.4784 17.201C93.9617 17.7037 94.2034 18.2933 94.2034 18.97C94.2034 19.6467 93.9617 20.2267 93.4784 20.71C92.995 21.1933 92.4054 21.435 91.7094 21.435Z" fill="white"/>
</g>
<defs>
<clipPath id="clip0_10_3">
<rect width="96" height="21" fill="white"/>
</clipPath>
</defs>
</svg>
